<svg width="13" height="20" viewBox="0 0 13 20" fill="none" xmlns="http://www.w3.org/2000/svg">
<path fill-rule="evenodd" clip-rule="evenodd" d="M0.180908 2.66665C0.180908 1.27444 1.30953 0.145821 2.70174 0.145821H10.0351C11.4273 0.145821 12.5559 1.27444 12.5559 2.66665V17.3333C12.5559 18.7256 11.4273 19.8542 10.0351 19.8542H2.70174C1.30953 19.8542 0.180908 18.7256 0.180908 17.3333V2.66665ZM2.70174 1.52082C2.06891 1.52082 1.55591 2.03382 1.55591 2.66665V17.3333C1.55591 17.9662 2.06891 18.4792 2.70174 18.4792H10.0351C10.6679 18.4792 11.1809 17.9662 11.1809 17.3333V2.66665C11.1809 2.03382 10.6679 1.52082 10.0351 1.52082H2.70174Z" fill="white"/>
<path fill-rule="evenodd" clip-rule="evenodd" d="M3.61841 0.145821C3.23872 0.145821 2.93091 0.453628 2.93091 0.833321V1.74999C2.93091 2.63595 3.64912 3.35415 4.53507 3.35415H8.20174C9.0877 3.35415 9.80591 2.63595 9.80591 1.74999V0.833321C9.80591 0.453628 9.49809 0.145821 9.11841 0.145821H3.61841Z" fill="white"/>
</svg>
