<svg width="197" height="132" viewBox="0 0 197 132" fill="none" xmlns="http://www.w3.org/2000/svg">
<path d="M191 70C194.314 70 197 67.3137 197 64C197 60.6863 194.314 58 191 58C187.686 58 185 60.6863 185 64C185 67.3137 187.686 70 191 70Z" fill="#F7CC38"/>
<path d="M178 4H176V2C176 1.46957 175.789 0.96086 175.414 0.585787C175.039 0.210714 174.53 0 174 0C173.47 0 172.961 0.210714 172.586 0.585787C172.211 0.96086 172 1.46957 172 2V4H170C169.47 4 168.961 4.21071 168.586 4.58579C168.211 4.96086 168 5.46957 168 6C168 6.53043 168.211 7.03914 168.586 7.41421C168.961 7.78929 169.47 8 170 8H172V10C172 10.5304 172.211 11.0391 172.586 11.4142C172.961 11.7893 173.47 12 174 12C174.53 12 175.039 11.7893 175.414 11.4142C175.789 11.0391 176 10.5304 176 10V8H178C178.53 8 179.039 7.78929 179.414 7.41421C179.789 7.03914 180 6.53043 180 6C180 5.46957 179.789 4.96086 179.414 4.58579C179.039 4.21071 178.53 4 178 4Z" fill="#FBE36A"/>
<path d="M174 124H172V122C172 121.47 171.789 120.961 171.414 120.586C171.039 120.211 170.53 120 170 120C169.47 120 168.961 120.211 168.586 120.586C168.211 120.961 168 121.47 168 122V124H166C165.47 124 164.961 124.211 164.586 124.586C164.211 124.961 164 125.47 164 126C164 126.53 164.211 127.039 164.586 127.414C164.961 127.789 165.47 128 166 128H168V130C168 130.53 168.211 131.039 168.586 131.414C168.961 131.789 169.47 132 170 132C170.53 132 171.039 131.789 171.414 131.414C171.789 131.039 172 130.53 172 130V128H174C174.53 128 175.039 127.789 175.414 127.414C175.789 127.039 176 126.53 176 126C176 125.47 175.789 124.961 175.414 124.586C175.039 124.211 174.53 124 174 124Z" fill="#FBE36A"/>
<path d="M15 10C15 10.5304 15.2107 11.0391 15.5858 11.4142C15.9609 11.7893 16.4696 12 17 12C17.5304 12 18.0391 11.7893 18.4142 11.4142C18.7893 11.0391 19 10.5304 19 10V8H21C21.5304 8 22.0391 7.78929 22.4142 7.41421C22.7893 7.03914 23 6.53043 23 6C23 5.46957 22.7893 4.96086 22.4142 4.58579C22.0391 4.21071 21.5304 4 21 4H19V2C19 1.46957 18.7893 0.96086 18.4142 0.585787C18.0391 0.210714 17.5304 0 17 0C16.4696 0 15.9609 0.210714 15.5858 0.585787C15.2107 0.96086 15 1.46957 15 2V4H13C12.4696 4 11.9609 4.21071 11.5858 4.58579C11.2107 4.96086 11 5.46957 11 6C11 6.53043 11.2107 7.03914 11.5858 7.41421C11.9609 7.78929 12.4696 8 13 8H15V10Z" fill="#FBE36A"/>
<path d="M27 124H25V122C25 121.47 24.7893 120.961 24.4142 120.586C24.0391 120.211 23.5304 120 23 120C22.4696 120 21.9609 120.211 21.5858 120.586C21.2107 120.961 21 121.47 21 122V124H19C18.4696 124 17.9609 124.211 17.5858 124.586C17.2107 124.961 17 125.47 17 126C17 126.53 17.2107 127.039 17.5858 127.414C17.9609 127.789 18.4696 128 19 128H21V130C21 130.53 21.2107 131.039 21.5858 131.414C21.9609 131.789 22.4696 132 23 132C23.5304 132 24.0391 131.789 24.4142 131.414C24.7893 131.039 25 130.53 25 130V128H27C27.5304 128 28.0391 127.789 28.4142 127.414C28.7893 127.039 29 126.53 29 126C29 125.47 28.7893 124.961 28.4142 124.586C28.0391 124.211 27.5304 124 27 124Z" fill="#FBE36A"/>
<path d="M5.5 71C8.53757 71 11 68.3137 11 65C11 61.6863 8.53757 59 5.5 59C2.46243 59 0 61.6863 0 65C0 68.3137 2.46243 71 5.5 71Z" fill="#F7CC38"/>
</svg>
